<svg width="73" height="14" viewBox="0 0 73 14" fill="none" xmlns="http://www.w3.org/2000/svg">
<path d="M0.00014849 13.608C0.0121485 13.428 0.0301485 13.11 0.0541485 12.654C0.0901485 12.186 0.126149 11.628 0.162149 10.98C0.210149 10.332 0.252149 9.63003 0.288149 8.87403C0.336149 8.10603 0.378149 7.32603 0.414149 6.53403C0.462149 5.74203 0.498149 4.96803 0.522148 4.21203C0.558149 3.45603 0.582149 2.76603 0.594148 2.14203C0.594148 2.04603 0.618148 1.98003 0.666148 1.94403C0.714149 1.89603 0.822149 1.87203 0.990148 1.87203C1.15815 1.87203 1.33215 1.89003 1.51215 1.92603C1.69215 1.95003 1.86615 1.99203 2.03415 2.05203C2.20215 2.10003 2.34015 2.17203 2.44815 2.26803C2.55615 2.36403 2.61015 2.47203 2.61015 2.59203C2.61015 2.61603 2.59215 2.78403 2.55615 3.09603C2.53215 3.39603 2.50215 3.79803 2.46615 4.30203C2.43015 4.79403 2.38815 5.35203 2.34015 5.97603C2.29215 6.60003 2.24415 7.25403 2.19615 7.93803C2.16015 8.62203 2.13015 9.29403 2.10615 9.95403C2.08215 10.614 2.07015 11.22 2.07015 11.772C2.07015 11.988 2.10615 12.156 2.17815 12.276C2.25015 12.384 2.40015 12.462 2.62815 12.51C2.86815 12.546 3.21615 12.564 3.67215 12.564C4.22415 12.564 4.72815 12.54 5.18415 12.492C5.65215 12.432 6.03015 12.378 6.31815 12.33C6.61815 12.282 6.78015 12.258 6.80415 12.258C6.85215 12.258 6.87615 12.288 6.87615 12.348C6.88815 12.396 6.89415 12.486 6.89415 12.618C6.89415 12.726 6.87615 12.858 6.84015 13.014C6.80415 13.17 6.75615 13.308 6.69615 13.428C6.63615 13.548 6.55815 13.608 6.46215 13.608H0.00014849ZM9.61145 13.842C9.55145 13.842 9.44945 13.818 9.30545 13.77C9.17345 13.722 9.02945 13.656 8.87345 13.572C8.72945 13.476 8.59745 13.38 8.47745 13.284C8.36945 13.176 8.30345 13.074 8.27945 12.978C8.25545 12.918 8.24345 12.828 8.24345 12.708C8.24345 12.576 8.24345 12.408 8.24345 12.204C8.25545 11.916 8.26745 11.55 8.27945 11.106C8.30345 10.662 8.32745 10.176 8.35145 9.64803C8.38745 9.10803 8.41745 8.56803 8.44145 8.02803C8.47745 7.48803 8.50745 6.97203 8.53145 6.48003C8.56745 5.97603 8.59145 5.55003 8.60345 5.20203C8.62745 4.84203 8.63945 4.58403 8.63945 4.42803C8.63945 4.34403 8.65745 4.28403 8.69345 4.24803C8.74145 4.20003 8.81945 4.17603 8.92745 4.17603C9.16745 4.17603 9.41345 4.20603 9.66545 4.26603C9.91745 4.32603 10.1274 4.42203 10.2954 4.55403C10.4754 4.67403 10.5654 4.83003 10.5654 5.02203C10.5654 5.15403 10.5474 5.41803 10.5114 5.81403C10.4874 6.21003 10.4574 6.67203 10.4214 7.20003C10.3854 7.72803 10.3434 8.26203 10.2954 8.80203C10.2474 9.34203 10.2114 9.83403 10.1874 10.278C10.1634 10.71 10.1514 11.034 10.1514 11.25C10.1514 11.67 10.1694 11.94 10.2054 12.06C10.2414 12.168 10.3074 12.222 10.4034 12.222C10.4754 12.222 10.5894 12.15 10.7454 12.006C10.9014 11.862 11.0694 11.694 11.2494 11.502C11.4294 11.31 11.5974 11.118 11.7534 10.926C11.9214 10.734 12.0414 10.59 12.1134 10.494C12.1614 10.446 12.1914 10.416 12.2034 10.404C12.2154 10.38 12.2394 10.368 12.2754 10.368C12.3234 10.368 12.3834 10.422 12.4554 10.53C12.5274 10.638 12.5694 10.764 12.5814 10.908C12.5934 10.956 12.5874 11.004 12.5634 11.052C12.5514 11.1 12.5274 11.148 12.4914 11.196C12.3714 11.376 12.1854 11.616 11.9334 11.916C11.6934 12.204 11.4294 12.498 11.1414 12.798C10.8534 13.086 10.5714 13.332 10.2954 13.536C10.0314 13.74 9.80345 13.842 9.61145 13.842ZM9.71945 2.05203C9.51545 2.05203 9.33545 2.01603 9.17945 1.94403C9.03545 1.86003 8.92145 1.75203 8.83745 1.62003C8.75345 1.47603 8.71145 1.32003 8.71145 1.15203C8.71145 0.900031 8.77145 0.690031 8.89145 0.522031C9.01145 0.354031 9.17345 0.228031 9.37745 0.144032C9.58145 0.0480316 9.78545 3.14713e-05 9.98945 3.14713e-05C10.1574 3.14713e-05 10.3134 0.0360314 10.4574 0.108031C10.6014 0.168031 10.7154 0.270031 10.7994 0.414032C10.8954 0.558032 10.9434 0.750032 10.9434 0.990032C10.9434 1.17003 10.8834 1.34403 10.7634 1.51203C10.6434 1.66803 10.4874 1.80003 10.2954 1.90803C10.1034 2.00403 9.91145 2.05203 9.71945 2.05203ZM11.3991 12.348C11.3271 12.384 11.2671 12.378 11.2191 12.33C11.1711 12.27 11.1411 12.192 11.1291 12.096C11.1051 12 11.1051 11.898 11.1291 11.79C11.1531 11.682 11.1951 11.586 11.2551 11.502C11.6271 11.082 12.0111 10.608 12.4071 10.08C12.7911 9.55203 13.1571 8.99403 13.5051 8.40603C13.8531 7.81803 14.1531 7.23003 14.4051 6.64203C14.4771 6.49803 14.5311 6.47403 14.5671 6.57003C14.6151 6.65403 14.6451 6.78003 14.6571 6.94803C14.6811 7.11603 14.6691 7.25403 14.6211 7.36203C14.4891 7.74603 14.2971 8.18403 14.0451 8.67603C13.8051 9.16803 13.5291 9.66003 13.2171 10.152C12.9171 10.644 12.6111 11.088 12.2991 11.484C11.9751 11.868 11.6751 12.156 11.3991 12.348ZM15.4491 13.842C15.2331 13.842 15.0051 13.806 14.7651 13.734C14.5251 13.674 14.3271 13.584 14.1711 13.464C14.0151 13.344 13.9371 13.188 13.9371 12.996C13.9371 12.9 13.9431 12.666 13.9551 12.294C13.9791 11.91 14.0091 11.448 14.0451 10.908C14.0811 10.356 14.1171 9.76203 14.1531 9.12603C14.1891 8.49003 14.2251 7.87203 14.2611 7.27203C14.2971 6.66003 14.3211 6.10803 14.3331 5.61603C14.3571 5.11203 14.3691 4.71603 14.3691 4.42803C14.3691 4.34403 14.3871 4.28403 14.4231 4.24803C14.4711 4.20003 14.5491 4.17603 14.6571 4.17603C14.8971 4.17603 15.1431 4.20603 15.3951 4.26603C15.6591 4.32603 15.8751 4.42203 16.0431 4.55403C16.2231 4.67403 16.3131 4.83003 16.3131 5.02203C16.3131 5.11803 16.3011 5.31003 16.2771 5.59803C16.2651 5.87403 16.2411 6.19803 16.2051 6.57003C16.1811 6.94203 16.1511 7.33203 16.1151 7.74003C16.0911 8.13603 16.0611 8.52003 16.0251 8.89203C16.0011 9.25203 15.9771 9.56403 15.9531 9.82803C15.9411 10.08 15.9291 10.248 15.9171 10.332C16.0731 9.90003 16.3071 9.41403 16.6191 8.87403C16.9431 8.32203 17.3031 7.77603 17.6991 7.23603C18.1071 6.68403 18.5151 6.18003 18.9231 5.72403C19.3311 5.25603 19.7031 4.88403 20.0391 4.60803C20.3871 4.32003 20.6691 4.17603 20.8851 4.17603C20.9451 4.17603 21.0411 4.20003 21.1731 4.24803C21.3051 4.29603 21.4431 4.36203 21.5871 4.44603C21.7431 4.53003 21.8751 4.62603 21.9831 4.73403C22.1031 4.83003 22.1751 4.93203 22.1991 5.04003C22.2231 5.11203 22.2411 5.21403 22.2531 5.34603C22.2651 5.47803 22.2711 5.63403 22.2711 5.81403C22.2711 6.06603 22.2531 6.44403 22.2171 6.94803C22.1811 7.44003 22.1391 7.97403 22.0911 8.55003C22.0431 9.12603 22.0011 9.66603 21.9651 10.17C21.9411 10.674 21.9291 11.07 21.9291 11.358C21.9291 11.694 21.9471 11.916 21.9831 12.024C22.0191 12.12 22.0911 12.168 22.1991 12.168C22.2711 12.168 22.3791 12.102 22.5231 11.97C22.6791 11.826 22.8471 11.658 23.0271 11.466C23.2191 11.262 23.3931 11.064 23.5491 10.872C23.7051 10.68 23.8251 10.542 23.9091 10.458C23.9451 10.41 23.9691 10.374 23.9811 10.35C24.0051 10.326 24.0291 10.314 24.0531 10.314C24.1131 10.314 24.1791 10.38 24.2511 10.512C24.3351 10.632 24.3771 10.764 24.3771 10.908C24.3771 10.956 24.3651 11.004 24.3411 11.052C24.3291 11.1 24.3051 11.148 24.2691 11.196C24.1491 11.376 23.9631 11.616 23.7111 11.916C23.4711 12.204 23.2071 12.498 22.9191 12.798C22.6311 13.086 22.3491 13.332 22.0731 13.536C21.8091 13.74 21.5811 13.842 21.3891 13.842C21.3291 13.842 21.2331 13.818 21.1011 13.77C20.9691 13.722 20.8251 13.656 20.6691 13.572C20.5131 13.476 20.3751 13.38 20.2551 13.284C20.1471 13.176 20.0751 13.074 20.0391 12.978C20.0271 12.894 20.0151 12.792 20.0031 12.672C19.9911 12.54 19.9851 12.384 19.9851 12.204C19.9851 12 19.9971 11.718 20.0211 11.358C20.0451 10.986 20.0751 10.578 20.1111 10.134C20.1471 9.69003 20.1771 9.24603 20.2011 8.80203C20.2371 8.35803 20.2671 7.95603 20.2911 7.59603C20.3151 7.23603 20.3271 6.96003 20.3271 6.76803C20.3391 6.37203 20.3211 6.12003 20.2731 6.01203C20.2371 5.90403 20.1711 5.85003 20.0751 5.85003C19.9911 5.85003 19.8171 5.98803 19.5531 6.26403C19.3011 6.54003 19.0011 6.90003 18.6531 7.34403C18.3051 7.78803 17.9511 8.28003 17.5911 8.82003C17.2431 9.36003 16.9371 9.88803 16.6731 10.404C16.3971 10.98 16.1751 11.538 16.0071 12.078C15.8391 12.606 15.7551 13.11 15.7551 13.59C15.7551 13.674 15.7311 13.734 15.6831 13.77C15.6471 13.818 15.5691 13.842 15.4491 13.842ZM24.1124 11.43C24.0524 11.502 23.9924 11.52 23.9324 11.484C23.8604 11.436 23.8004 11.364 23.7524 11.268C23.7044 11.172 23.6804 11.064 23.6804 10.944C23.6804 10.824 23.7164 10.716 23.7884 10.62C24.1004 10.248 24.3824 9.88803 24.6344 9.54003C24.8984 9.19203 25.1324 8.85603 25.3364 8.53203C25.5404 8.19603 25.7204 7.87203 25.8764 7.56003C26.0444 7.23603 26.1884 6.91803 26.3084 6.60603C26.3564 6.55803 26.4104 6.54603 26.4704 6.57003C26.5424 6.59403 26.5904 6.66003 26.6144 6.76803C26.6384 6.87603 26.6144 7.05003 26.5424 7.29003C26.4584 7.55403 26.3264 7.86603 26.1464 8.22603C25.9664 8.58603 25.7564 8.96403 25.5164 9.36003C25.2884 9.74403 25.0484 10.116 24.7964 10.476C24.5444 10.836 24.3164 11.154 24.1124 11.43ZM26.8664 13.842C26.8184 13.842 26.7224 13.818 26.5784 13.77C26.4464 13.722 26.3024 13.656 26.1464 13.572C26.0024 13.476 25.8704 13.38 25.7504 13.284C25.6424 13.176 25.5704 13.074 25.5344 12.978C25.4984 12.822 25.4804 12.564 25.4804 12.204C25.4804 11.976 25.4864 11.664 25.4984 11.268C25.5104 10.86 25.5284 10.41 25.5524 9.91803C25.5884 9.42603 25.6424 8.94003 25.7144 8.46003C25.7864 7.96803 25.8824 7.51803 26.0024 7.11003C26.1224 6.69003 26.2724 6.35403 26.4524 6.10203C26.8844 5.50203 27.3764 5.03403 27.9284 4.69803C28.4804 4.35003 29.1044 4.17603 29.8004 4.17603C29.9924 4.17603 30.2984 4.19403 30.7184 4.23003C31.1504 4.26603 31.6124 4.32003 32.1044 4.39203C32.1524 3.75603 32.1884 3.20403 32.2124 2.73603C32.2484 2.26803 32.2724 1.83603 32.2844 1.44003C32.2964 1.03203 32.3024 0.636032 32.3024 0.252031C32.3024 0.168032 32.3204 0.108032 32.3564 0.0720316C32.4044 0.0240315 32.4824 3.14713e-05 32.5904 3.14713e-05C32.8304 3.14713e-05 33.0764 0.0300314 33.3284 0.0900314C33.5924 0.150031 33.8084 0.246032 33.9764 0.378032C34.1444 0.498032 34.2284 0.654032 34.2284 0.846031C34.2284 0.906031 34.2224 1.02003 34.2104 1.18803C34.1984 1.35603 34.1804 1.56603 34.1564 1.81803C34.1444 2.07003 34.1264 2.35203 34.1024 2.66403C34.0784 2.96403 34.0544 3.28803 34.0304 3.63603C34.0184 3.97203 33.9944 4.31403 33.9584 4.66203H34.0304C34.0664 4.66203 34.0904 4.67403 34.1024 4.69803C34.1264 4.72203 34.1384 4.76403 34.1384 4.82403C34.1384 5.01603 34.1084 5.17203 34.0484 5.29203C33.9884 5.41203 33.9344 5.47203 33.8864 5.47203C33.8864 5.50803 33.8744 5.66403 33.8504 5.94003C33.8384 6.20403 33.8204 6.55203 33.7964 6.98403C33.7724 7.41603 33.7484 7.88403 33.7244 8.38803C33.7004 8.88003 33.6764 9.37803 33.6524 9.88203C33.6404 10.386 33.6344 10.842 33.6344 11.25C33.6344 11.646 33.6524 11.898 33.6884 12.006C33.7244 12.102 33.7904 12.15 33.8864 12.15C33.9584 12.15 34.0724 12.084 34.2284 11.952C34.3844 11.82 34.5524 11.652 34.7324 11.448C34.9244 11.244 35.0984 11.052 35.2544 10.872C35.4104 10.68 35.5244 10.542 35.5964 10.458C35.6444 10.41 35.6744 10.374 35.6864 10.35C35.7104 10.326 35.7404 10.314 35.7764 10.314C35.8124 10.314 35.8664 10.38 35.9384 10.512C36.0224 10.632 36.0644 10.764 36.0644 10.908C36.0644 10.968 36.0584 11.022 36.0464 11.07C36.0344 11.106 36.0104 11.148 35.9744 11.196C35.8424 11.376 35.6564 11.616 35.4164 11.916C35.1764 12.204 34.9124 12.498 34.6244 12.798C34.3364 13.086 34.0544 13.332 33.7784 13.536C33.5144 13.74 33.2864 13.842 33.0944 13.842C33.0344 13.842 32.9324 13.818 32.7884 13.77C32.6564 13.722 32.5124 13.656 32.3564 13.572C32.2124 13.476 32.0804 13.38 31.9604 13.284C31.8524 13.176 31.7864 13.074 31.7624 12.978C31.7384 12.894 31.7204 12.792 31.7084 12.672C31.7084 12.54 31.7084 12.384 31.7084 12.204C31.7084 11.976 31.7084 11.688 31.7084 11.34C31.7204 10.992 31.7384 10.62 31.7624 10.224C31.7864 9.81603 31.8104 9.41403 31.8344 9.01803C31.8584 8.62203 31.8764 8.26203 31.8884 7.93803C31.6844 8.37003 31.4204 8.85003 31.0964 9.37803C30.7724 9.90603 30.4124 10.434 30.0164 10.962C29.6204 11.478 29.2184 11.958 28.8104 12.402C28.4144 12.834 28.0484 13.182 27.7124 13.446C27.3764 13.71 27.0944 13.842 26.8664 13.842ZM27.6584 12.15C27.7424 12.15 27.8924 12.048 28.1084 11.844C28.3364 11.628 28.6004 11.34 28.9004 10.98C29.2124 10.62 29.5304 10.212 29.8544 9.75603C30.1784 9.28803 30.4904 8.80203 30.7904 8.29803C31.0904 7.79403 31.3544 7.29603 31.5824 6.80403C31.8104 6.30003 31.9664 5.83203 32.0504 5.40003C31.4864 5.28003 31.0004 5.20203 30.5924 5.16603C30.1844 5.11803 29.8364 5.09403 29.5484 5.09403C28.8764 5.09403 28.3484 5.63403 27.9644 6.71403C27.5924 7.78203 27.4064 9.29403 27.4064 11.25C27.4064 11.658 27.4244 11.91 27.4604 12.006C27.4964 12.102 27.5624 12.15 27.6584 12.15ZM35.7843 11.43C35.7243 11.502 35.6643 11.52 35.6043 11.484C35.5323 11.436 35.4723 11.364 35.4243 11.268C35.3763 11.172 35.3523 11.064 35.3523 10.944C35.3523 10.824 35.3883 10.716 35.4603 10.62C35.7723 10.248 36.0543 9.88803 36.3063 9.54003C36.5703 9.19203 36.8043 8.85603 37.0083 8.53203C37.2123 8.19603 37.3923 7.87203 37.5483 7.56003C37.7163 7.23603 37.8603 6.91803 37.9803 6.60603C38.0283 6.55803 38.0823 6.54603 38.1423 6.57003C38.2143 6.59403 38.2623 6.66003 38.2863 6.76803C38.3103 6.87603 38.2863 7.05003 38.2143 7.29003C38.1303 7.55403 37.9983 7.86603 37.8183 8.22603C37.6383 8.58603 37.4283 8.96403 37.1883 9.36003C36.9603 9.74403 36.7203 10.116 36.4683 10.476C36.2163 10.836 35.9883 11.154 35.7843 11.43ZM38.5383 13.842C38.4903 13.842 38.3943 13.818 38.2503 13.77C38.1183 13.722 37.9743 13.656 37.8183 13.572C37.6743 13.476 37.5423 13.38 37.4223 13.284C37.3143 13.176 37.2423 13.074 37.2063 12.978C37.1703 12.822 37.1523 12.564 37.1523 12.204C37.1523 11.976 37.1583 11.664 37.1703 11.268C37.1823 10.86 37.2003 10.41 37.2243 9.91803C37.2603 9.42603 37.3143 8.94003 37.3863 8.46003C37.4583 7.96803 37.5543 7.51803 37.6743 7.11003C37.7943 6.69003 37.9443 6.35403 38.1243 6.10203C38.5563 5.50203 39.0483 5.03403 39.6003 4.69803C40.1523 4.35003 40.7763 4.17603 41.4723 4.17603C41.7003 4.17603 42.0303 4.19403 42.4623 4.23003C42.8943 4.26603 43.3923 4.32003 43.9563 4.39203C44.5203 4.46403 45.1023 4.56003 45.7023 4.68003C45.7263 4.68003 45.7503 4.69203 45.7743 4.71603C45.7983 4.72803 45.8103 4.76403 45.8103 4.82403C45.8103 5.01603 45.7803 5.17203 45.7203 5.29203C45.6603 5.41203 45.6063 5.47203 45.5583 5.47203C45.5583 5.50803 45.5463 5.66403 45.5223 5.94003C45.5103 6.20403 45.4923 6.55203 45.4683 6.98403C45.4443 7.41603 45.4203 7.88403 45.3963 8.38803C45.3723 8.88003 45.3483 9.37803 45.3243 9.88203C45.3123 10.386 45.3063 10.842 45.3063 11.25C45.3063 11.646 45.3243 11.898 45.3603 12.006C45.3963 12.114 45.4623 12.168 45.5583 12.168C45.6303 12.168 45.7443 12.102 45.9003 11.97C46.0563 11.826 46.2243 11.658 46.4043 11.466C46.5963 11.262 46.7703 11.064 46.9263 10.872C47.0823 10.68 47.1963 10.542 47.2683 10.458C47.3163 10.41 47.3463 10.374 47.3583 10.35C47.3823 10.326 47.4063 10.314 47.4303 10.314C47.4783 10.314 47.5383 10.38 47.6103 10.512C47.6943 10.632 47.7363 10.764 47.7363 10.908C47.7363 10.956 47.7303 11.004 47.7183 11.052C47.7063 11.1 47.6823 11.148 47.6463 11.196C47.5143 11.376 47.3283 11.616 47.0883 11.916C46.8483 12.204 46.5843 12.498 46.2963 12.798C46.0083 13.086 45.7263 13.332 45.4503 13.536C45.1863 13.74 44.9583 13.842 44.7663 13.842C44.7063 13.842 44.6043 13.818 44.4603 13.77C44.3283 13.722 44.1843 13.656 44.0283 13.572C43.8843 13.476 43.7523 13.38 43.6323 13.284C43.5243 13.176 43.4583 13.074 43.4343 12.978C43.4103 12.894 43.3923 12.792 43.3803 12.672C43.3803 12.54 43.3803 12.384 43.3803 12.204C43.3803 11.976 43.3803 11.688 43.3803 11.34C43.3923 10.992 43.4103 10.62 43.4343 10.224C43.4583 9.81603 43.4823 9.41403 43.5063 9.01803C43.5303 8.62203 43.5483 8.26203 43.5603 7.93803C43.3563 8.37003 43.0923 8.85003 42.7683 9.37803C42.4443 9.90603 42.0843 10.434 41.6883 10.962C41.2923 11.478 40.8903 11.958 40.4823 12.402C40.0863 12.834 39.7203 13.182 39.3843 13.446C39.0483 13.71 38.7663 13.842 38.5383 13.842ZM39.3303 12.168C39.4143 12.168 39.5643 12.066 39.7803 11.862C40.0083 11.646 40.2723 11.358 40.5723 10.998C40.8843 10.638 41.2023 10.224 41.5263 9.75603C41.8503 9.28803 42.1623 8.80203 42.4623 8.29803C42.7623 7.79403 43.0263 7.29603 43.2543 6.80403C43.4823 6.30003 43.6383 5.83203 43.7223 5.40003C43.1583 5.28003 42.6723 5.20203 42.2643 5.16603C41.8563 5.11803 41.5083 5.09403 41.2203 5.09403C40.5483 5.09403 40.0203 5.63403 39.6363 6.71403C39.2643 7.78203 39.0783 9.29403 39.0783 11.25C39.0783 11.658 39.0963 11.916 39.1323 12.024C39.1683 12.12 39.2343 12.168 39.3303 12.168Z" fill="#363033"/>
<path d="M49.9222 13.608C49.6582 13.608 49.4422 13.536 49.2742 13.392C49.1182 13.236 49.0402 12.984 49.0402 12.636C49.0402 12.384 49.1062 12.162 49.2382 11.97C49.3702 11.778 49.5262 11.628 49.7062 11.52C49.8982 11.412 50.0782 11.358 50.2462 11.358C50.4022 11.358 50.5402 11.412 50.6602 11.52C50.7922 11.616 50.8942 11.76 50.9662 11.952C51.0502 12.132 51.0922 12.33 51.0922 12.546C51.0922 12.774 51.0382 12.972 50.9302 13.14C50.8222 13.296 50.6782 13.416 50.4982 13.5C50.3302 13.572 50.1382 13.608 49.9222 13.608ZM54.8713 13.842C54.8113 13.842 54.7153 13.818 54.5833 13.77C54.4513 13.722 54.3073 13.656 54.1513 13.572C53.9953 13.476 53.8573 13.38 53.7373 13.284C53.6173 13.176 53.5453 13.074 53.5213 12.978C53.4973 12.894 53.4793 12.792 53.4673 12.672C53.4673 12.54 53.4673 12.384 53.4673 12.204C53.4673 11.904 53.4793 11.526 53.5033 11.07C53.5393 10.614 53.5873 10.11 53.6473 9.55803C53.7073 9.00603 53.7673 8.43603 53.8273 7.84803C53.8873 7.24803 53.9413 6.65403 53.9893 6.06603C54.0373 5.47803 54.0733 4.93203 54.0973 4.42803C54.0973 4.34403 54.1153 4.28403 54.1513 4.24803C54.1993 4.20003 54.2773 4.17603 54.3853 4.17603C54.6373 4.17603 54.8893 4.20603 55.1413 4.26603C55.3933 4.32603 55.6033 4.42203 55.7713 4.55403C55.9393 4.67403 56.0173 4.83003 56.0053 5.02203C56.0053 5.46603 55.9693 5.97603 55.8973 6.55203C55.8373 7.11603 55.7653 7.69203 55.6813 8.28003C55.6093 8.86803 55.5433 9.42603 55.4833 9.95403C55.4233 10.47 55.3933 10.902 55.3933 11.25C55.3933 11.658 55.4113 11.916 55.4473 12.024C55.4833 12.12 55.5553 12.168 55.6633 12.168C55.7593 12.168 55.9393 12.042 56.2033 11.79C56.4673 11.526 56.7733 11.178 57.1213 10.746C57.4693 10.314 57.8233 9.82803 58.1833 9.28803C58.5553 8.73603 58.8913 8.17803 59.1913 7.61403C59.4553 7.06203 59.6653 6.51603 59.8213 5.97603C59.9893 5.43603 60.0733 4.92603 60.0733 4.44603C60.0733 4.35003 60.0913 4.28403 60.1273 4.24803C60.1753 4.20003 60.2593 4.17603 60.3793 4.17603C60.6193 4.17603 60.8533 4.20603 61.0813 4.26603C61.3213 4.32603 61.5193 4.42203 61.6753 4.55403C61.8433 4.67403 61.9273 4.83003 61.9273 5.02203C61.9273 5.04603 61.9153 5.21403 61.8913 5.52603C61.8793 5.82603 61.8553 6.21003 61.8193 6.67803C61.7953 7.14603 61.7653 7.65603 61.7293 8.20803C61.7053 8.76003 61.6813 9.30603 61.6573 9.84603C61.6333 10.374 61.6213 10.842 61.6213 11.25C61.6213 11.646 61.6393 11.898 61.6753 12.006C61.7113 12.114 61.7833 12.168 61.8913 12.168C61.9633 12.168 62.0713 12.102 62.2153 11.97C62.3713 11.826 62.5393 11.658 62.7193 11.466C62.9113 11.262 63.0853 11.064 63.2413 10.872C63.3973 10.68 63.5173 10.542 63.6013 10.458C63.6373 10.41 63.6613 10.374 63.6733 10.35C63.6973 10.326 63.7213 10.314 63.7453 10.314C63.8053 10.314 63.8713 10.38 63.9433 10.512C64.0273 10.632 64.0693 10.764 64.0693 10.908C64.0693 10.956 64.0573 11.004 64.0333 11.052C64.0213 11.1 63.9973 11.148 63.9613 11.196C63.8413 11.376 63.6553 11.616 63.4033 11.916C63.1633 12.204 62.8993 12.498 62.6113 12.798C62.3233 13.086 62.0413 13.332 61.7653 13.536C61.5013 13.74 61.2733 13.842 61.0813 13.842C61.0213 13.842 60.9193 13.818 60.7753 13.77C60.6433 13.722 60.4993 13.656 60.3433 13.572C60.1873 13.476 60.0553 13.38 59.9473 13.284C59.8393 13.176 59.7673 13.074 59.7313 12.978C59.7193 12.894 59.7073 12.792 59.6953 12.672C59.6953 12.54 59.6953 12.384 59.6953 12.204C59.6953 11.976 59.7013 11.688 59.7133 11.34C59.7253 10.992 59.7373 10.62 59.7493 10.224C59.7613 9.81603 59.7793 9.41403 59.8033 9.01803C59.8273 8.62203 59.8513 8.26203 59.8753 7.93803C59.6833 8.37003 59.4193 8.85003 59.0833 9.37803C58.7473 9.90603 58.3813 10.434 57.9853 10.962C57.6013 11.478 57.2113 11.958 56.8153 12.402C56.4193 12.834 56.0473 13.182 55.6993 13.446C55.3633 13.71 55.0873 13.842 54.8713 13.842ZM62.6162 12.78C62.5802 12.816 62.5142 12.822 62.4182 12.798C62.3222 12.762 62.2262 12.714 62.1302 12.654C62.0342 12.594 61.9622 12.54 61.9142 12.492C61.8542 12.432 61.8422 12.384 61.8782 12.348C62.6102 11.664 63.2102 10.98 63.6782 10.296C64.1462 9.61203 64.5122 8.95203 64.7762 8.31603C65.0402 7.68003 65.2322 7.09803 65.3522 6.57003C65.4722 6.03003 65.5502 5.58003 65.5862 5.22003C65.5982 5.07603 65.6462 5.01603 65.7302 5.04003C65.8142 5.05203 65.8862 5.16003 65.9462 5.36403C66.0062 5.55603 66.0062 5.85603 65.9462 6.26403C65.8502 6.94803 65.6522 7.69203 65.3522 8.49603C65.0642 9.30003 64.6862 10.08 64.2182 10.836C63.7622 11.58 63.2282 12.228 62.6162 12.78ZM65.109 13.842C65.025 13.842 64.941 13.788 64.857 13.68C64.785 13.584 64.719 13.464 64.659 13.32C64.611 13.164 64.587 13.014 64.587 12.87C64.587 12.69 64.629 12.546 64.713 12.438C64.761 12.354 64.875 12.204 65.055 11.988C65.247 11.76 65.475 11.49 65.739 11.178C66.003 10.866 66.267 10.548 66.531 10.224C66.807 9.88803 67.059 9.57603 67.287 9.28803C67.167 9.08403 67.011 8.85003 66.819 8.58603C66.639 8.31003 66.453 8.02803 66.261 7.74003C66.069 7.45203 65.889 7.18803 65.721 6.94803C65.565 6.69603 65.445 6.48603 65.361 6.31803C65.301 6.19803 65.253 6.09003 65.217 5.99403C65.193 5.89803 65.181 5.81403 65.181 5.74203C65.181 5.59803 65.217 5.44203 65.289 5.27403C65.373 5.09403 65.475 4.92603 65.595 4.77003C65.715 4.60203 65.841 4.45803 65.973 4.33803C66.093 4.23003 66.189 4.17603 66.261 4.17603C66.309 4.17603 66.357 4.19403 66.405 4.23003C66.465 4.25403 66.507 4.28403 66.531 4.32003C66.579 4.41603 66.687 4.62003 66.855 4.93203C67.023 5.24403 67.257 5.65803 67.557 6.17403C67.857 6.67803 68.241 7.28403 68.709 7.99203C69.417 7.08003 69.969 6.34803 70.365 5.79603C70.761 5.23203 71.043 4.82403 71.211 4.57203C71.391 4.30803 71.499 4.17603 71.535 4.17603C71.619 4.17603 71.697 4.23003 71.769 4.33803C71.853 4.43403 71.919 4.56003 71.967 4.71603C72.027 4.86003 72.057 5.00403 72.057 5.14803C72.057 5.26803 71.997 5.42403 71.877 5.61603C71.733 5.82003 71.523 6.09003 71.247 6.42603C70.971 6.76203 70.671 7.12203 70.347 7.50603C70.023 7.89003 69.711 8.27403 69.411 8.65803C69.543 8.85003 69.711 9.09003 69.915 9.37803C70.131 9.66603 70.347 9.96003 70.563 10.26C70.791 10.56 71.001 10.842 71.193 11.106C71.385 11.358 71.529 11.544 71.625 11.664C71.673 11.724 71.709 11.79 71.733 11.862C71.769 11.934 71.787 12.024 71.787 12.132C71.787 12.312 71.745 12.504 71.661 12.708C71.589 12.9 71.499 13.08 71.391 13.248C71.283 13.416 71.187 13.554 71.103 13.662C71.067 13.71 71.025 13.752 70.977 13.788C70.929 13.824 70.875 13.842 70.815 13.842C70.767 13.842 70.731 13.83 70.707 13.806C70.683 13.782 70.647 13.74 70.599 13.68C70.539 13.608 70.431 13.464 70.275 13.248C70.131 13.032 69.951 12.78 69.735 12.492C69.531 12.192 69.315 11.886 69.087 11.574C68.871 11.25 68.667 10.95 68.475 10.674C68.283 10.398 68.121 10.17 67.989 9.99003C67.413 10.734 66.945 11.358 66.585 11.862C66.225 12.354 65.943 12.744 65.739 13.032C65.535 13.32 65.385 13.524 65.289 13.644C65.205 13.776 65.145 13.842 65.109 13.842Z" fill="#B61E5D"/>
</svg>
