<svg width="97" height="19" viewBox="0 0 97 19" fill="none" xmlns="http://www.w3.org/2000/svg">
<path d="M3.52263e-05 18.144C0.0160353 17.904 0.0400352 17.48 0.0720352 16.872C0.120035 16.248 0.168035 15.504 0.216035 14.64C0.280035 13.776 0.336035 12.84 0.384035 11.832C0.448035 10.808 0.504035 9.76804 0.552035 8.71204C0.616035 7.65604 0.664035 6.62404 0.696035 5.61604C0.744035 4.60804 0.776035 3.68804 0.792035 2.85604C0.792035 2.72804 0.824035 2.64004 0.888035 2.59204C0.952035 2.52804 1.09604 2.49604 1.32004 2.49604C1.54404 2.49604 1.77604 2.52004 2.01604 2.56804C2.25604 2.60004 2.48804 2.65604 2.71204 2.73604C2.93604 2.80004 3.12004 2.89604 3.26404 3.02404C3.40804 3.15204 3.48004 3.29604 3.48004 3.45604C3.48004 3.48804 3.45604 3.71204 3.40804 4.12804C3.37604 4.52804 3.33604 5.06404 3.28804 5.73604C3.24004 6.39204 3.18404 7.13604 3.12004 7.96804C3.05604 8.80004 2.99204 9.67204 2.92804 10.584C2.88004 11.496 2.84004 12.392 2.80804 13.272C2.77604 14.152 2.76004 14.96 2.76004 15.696C2.76004 15.984 2.80804 16.208 2.90404 16.368C3.00004 16.512 3.20004 16.616 3.50404 16.68C3.82404 16.728 4.28804 16.752 4.89604 16.752C5.63204 16.752 6.30404 16.72 6.91204 16.656C7.53604 16.576 8.04004 16.504 8.42404 16.44C8.82404 16.376 9.04004 16.344 9.07204 16.344C9.13604 16.344 9.16804 16.384 9.16804 16.464C9.18404 16.528 9.19204 16.648 9.19204 16.824C9.19204 16.968 9.16804 17.144 9.12004 17.352C9.07204 17.56 9.00804 17.744 8.92804 17.904C8.84804 18.064 8.74404 18.144 8.61604 18.144H3.52263e-05ZM12.8151 18.456C12.7351 18.456 12.5991 18.424 12.4071 18.36C12.2311 18.296 12.0391 18.208 11.8311 18.096C11.6391 17.968 11.4631 17.84 11.3031 17.712C11.1591 17.568 11.0711 17.432 11.0391 17.304C11.0071 17.224 10.9911 17.104 10.9911 16.944C10.9911 16.768 10.9911 16.544 10.9911 16.272C11.0071 15.888 11.0231 15.4 11.0391 14.808C11.0711 14.216 11.1031 13.568 11.1351 12.864C11.1831 12.144 11.2231 11.424 11.2551 10.704C11.3031 9.98404 11.3431 9.29604 11.3751 8.64004C11.4231 7.96804 11.4551 7.40004 11.4711 6.93604C11.5031 6.45604 11.5191 6.11204 11.5191 5.90404C11.5191 5.79204 11.5431 5.71204 11.5911 5.66404C11.6551 5.60004 11.7591 5.56804 11.9031 5.56804C12.2231 5.56804 12.5511 5.60804 12.8871 5.68804C13.2231 5.76804 13.5031 5.89604 13.7271 6.07204C13.9671 6.23204 14.0871 6.44004 14.0871 6.69604C14.0871 6.87204 14.0631 7.22404 14.0151 7.75204C13.9831 8.28004 13.9431 8.89604 13.8951 9.60004C13.8471 10.304 13.7911 11.016 13.7271 11.736C13.6631 12.456 13.6151 13.112 13.5831 13.704C13.5511 14.28 13.5351 14.712 13.5351 15C13.5351 15.56 13.5591 15.92 13.6071 16.08C13.6551 16.224 13.7431 16.296 13.8711 16.296C13.9671 16.296 14.1191 16.2 14.3271 16.008C14.5351 15.816 14.7591 15.592 14.9991 15.336C15.2391 15.08 15.4631 14.824 15.6711 14.568C15.8951 14.312 16.0551 14.12 16.1511 13.992C16.2151 13.928 16.2551 13.888 16.2711 13.872C16.2871 13.84 16.3191 13.824 16.3671 13.824C16.4311 13.824 16.5111 13.896 16.6071 14.04C16.7031 14.184 16.7591 14.352 16.7751 14.544C16.7911 14.608 16.7831 14.672 16.7511 14.736C16.7351 14.8 16.7031 14.864 16.6551 14.928C16.4951 15.168 16.2471 15.488 15.9111 15.888C15.5911 16.272 15.2391 16.664 14.8551 17.064C14.4711 17.448 14.0951 17.776 13.7271 18.048C13.3751 18.32 13.0711 18.456 12.8151 18.456ZM12.9591 2.73604C12.6871 2.73604 12.4471 2.68804 12.2391 2.59204C12.0471 2.48004 11.8951 2.33604 11.7831 2.16004C11.6711 1.96804 11.6151 1.76004 11.6151 1.53604C11.6151 1.20004 11.6951 0.920042 11.8551 0.696042C12.0151 0.472042 12.2311 0.304042 12.5031 0.192042C12.7751 0.0640421 13.0471 4.19617e-05 13.3191 4.19617e-05C13.5431 4.19617e-05 13.7511 0.0480418 13.9431 0.144042C14.1351 0.224041 14.2871 0.360042 14.3991 0.552042C14.5271 0.744042 14.5911 1.00004 14.5911 1.32004C14.5911 1.56004 14.5111 1.79204 14.3511 2.01604C14.1911 2.22404 13.9831 2.40004 13.7271 2.54404C13.4711 2.67204 13.2151 2.73604 12.9591 2.73604ZM15.1986 16.464C15.1026 16.512 15.0226 16.504 14.9586 16.44C14.8946 16.36 14.8546 16.256 14.8386 16.128C14.8066 16 14.8066 15.864 14.8386 15.72C14.8706 15.576 14.9266 15.448 15.0066 15.336C15.5026 14.776 16.0146 14.144 16.5426 13.44C17.0546 12.736 17.5426 11.992 18.0066 11.208C18.4706 10.424 18.8706 9.64004 19.2066 8.85604C19.3026 8.66404 19.3746 8.63204 19.4226 8.76004C19.4866 8.87204 19.5266 9.04004 19.5426 9.26404C19.5746 9.48804 19.5586 9.67204 19.4946 9.81604C19.3186 10.328 19.0626 10.912 18.7266 11.568C18.4066 12.224 18.0386 12.88 17.6226 13.536C17.2226 14.192 16.8146 14.784 16.3986 15.312C15.9666 15.824 15.5666 16.208 15.1986 16.464ZM20.5986 18.456C20.3106 18.456 20.0066 18.408 19.6866 18.312C19.3666 18.232 19.1026 18.112 18.8946 17.952C18.6866 17.792 18.5826 17.584 18.5826 17.328C18.5826 17.2 18.5906 16.888 18.6066 16.392C18.6386 15.88 18.6786 15.264 18.7266 14.544C18.7746 13.808 18.8226 13.016 18.8706 12.168C18.9186 11.32 18.9666 10.496 19.0146 9.69604C19.0626 8.88004 19.0946 8.14404 19.1106 7.48804C19.1426 6.81604 19.1586 6.28804 19.1586 5.90404C19.1586 5.79204 19.1826 5.71204 19.2306 5.66404C19.2946 5.60004 19.3986 5.56804 19.5426 5.56804C19.8626 5.56804 20.1906 5.60804 20.5266 5.68804C20.8786 5.76804 21.1666 5.89604 21.3906 6.07204C21.6306 6.23204 21.7506 6.44004 21.7506 6.69604C21.7506 6.82404 21.7346 7.08004 21.7026 7.46404C21.6866 7.83204 21.6546 8.26404 21.6066 8.76004C21.5746 9.25604 21.5346 9.77604 21.4866 10.32C21.4546 10.848 21.4146 11.36 21.3666 11.856C21.3346 12.336 21.3026 12.752 21.2706 13.104C21.2546 13.44 21.2386 13.664 21.2226 13.776C21.4306 13.2 21.7426 12.552 22.1586 11.832C22.5906 11.096 23.0706 10.368 23.5986 9.64804C24.1426 8.91204 24.6866 8.24004 25.2306 7.63204C25.7746 7.00804 26.2706 6.51204 26.7186 6.14404C27.1826 5.76004 27.5586 5.56804 27.8466 5.56804C27.9266 5.56804 28.0546 5.60004 28.2306 5.66404C28.4066 5.72804 28.5906 5.81604 28.7826 5.92804C28.9906 6.04004 29.1666 6.16804 29.3106 6.31204C29.4706 6.44004 29.5666 6.57604 29.5986 6.72004C29.6306 6.81604 29.6546 6.95204 29.6706 7.12804C29.6866 7.30404 29.6946 7.51204 29.6946 7.75204C29.6946 8.08804 29.6706 8.59204 29.6226 9.26404C29.5746 9.92004 29.5186 10.632 29.4546 11.4C29.3906 12.168 29.3346 12.888 29.2866 13.56C29.2546 14.232 29.2386 14.76 29.2386 15.144C29.2386 15.592 29.2626 15.888 29.3106 16.032C29.3586 16.16 29.4546 16.224 29.5986 16.224C29.6946 16.224 29.8386 16.136 30.0306 15.96C30.2386 15.768 30.4626 15.544 30.7026 15.288C30.9586 15.016 31.1906 14.752 31.3986 14.496C31.6066 14.24 31.7666 14.056 31.8786 13.944C31.9266 13.88 31.9586 13.832 31.9746 13.8C32.0066 13.768 32.0386 13.752 32.0706 13.752C32.1506 13.752 32.2386 13.84 32.3346 14.016C32.4466 14.176 32.5026 14.352 32.5026 14.544C32.5026 14.608 32.4866 14.672 32.4546 14.736C32.4386 14.8 32.4066 14.864 32.3586 14.928C32.1986 15.168 31.9506 15.488 31.6146 15.888C31.2946 16.272 30.9426 16.664 30.5586 17.064C30.1746 17.448 29.7986 17.776 29.4306 18.048C29.0786 18.32 28.7746 18.456 28.5186 18.456C28.4386 18.456 28.3106 18.424 28.1346 18.36C27.9586 18.296 27.7666 18.208 27.5586 18.096C27.3506 17.968 27.1666 17.84 27.0066 17.712C26.8626 17.568 26.7666 17.432 26.7186 17.304C26.7026 17.192 26.6866 17.056 26.6706 16.896C26.6546 16.72 26.6466 16.512 26.6466 16.272C26.6466 16 26.6626 15.624 26.6946 15.144C26.7266 14.648 26.7666 14.104 26.8146 13.512C26.8626 12.92 26.9026 12.328 26.9346 11.736C26.9826 11.144 27.0226 10.608 27.0546 10.128C27.0866 9.64804 27.1026 9.28004 27.1026 9.02404C27.1186 8.49604 27.0946 8.16004 27.0306 8.01604C26.9826 7.87204 26.8946 7.80004 26.7666 7.80004C26.6546 7.80004 26.4226 7.98404 26.0706 8.35204C25.7346 8.72004 25.3346 9.20004 24.8706 9.79204C24.4066 10.384 23.9346 11.04 23.4546 11.76C22.9906 12.48 22.5826 13.184 22.2306 13.872C21.8626 14.64 21.5666 15.384 21.3426 16.104C21.1186 16.808 21.0066 17.48 21.0066 18.12C21.0066 18.232 20.9746 18.312 20.9106 18.36C20.8626 18.424 20.7586 18.456 20.5986 18.456ZM32.1497 15.24C32.0697 15.336 31.9897 15.36 31.9097 15.312C31.8137 15.248 31.7337 15.152 31.6697 15.024C31.6057 14.896 31.5737 14.752 31.5737 14.592C31.5737 14.432 31.6217 14.288 31.7177 14.16C32.1337 13.664 32.5097 13.184 32.8457 12.72C33.1977 12.256 33.5097 11.808 33.7817 11.376C34.0537 10.928 34.2937 10.496 34.5017 10.08C34.7257 9.64804 34.9177 9.22404 35.0777 8.80804C35.1417 8.74404 35.2137 8.72804 35.2937 8.76004C35.3897 8.79204 35.4537 8.88004 35.4857 9.02404C35.5177 9.16804 35.4857 9.40004 35.3897 9.72004C35.2777 10.072 35.1017 10.488 34.8617 10.968C34.6217 11.448 34.3417 11.952 34.0217 12.48C33.7177 12.992 33.3977 13.488 33.0617 13.968C32.7257 14.448 32.4217 14.872 32.1497 15.24ZM35.8217 18.456C35.7577 18.456 35.6297 18.424 35.4377 18.36C35.2617 18.296 35.0697 18.208 34.8617 18.096C34.6697 17.968 34.4937 17.84 34.3337 17.712C34.1897 17.568 34.0937 17.432 34.0457 17.304C33.9977 17.096 33.9737 16.752 33.9737 16.272C33.9737 15.968 33.9817 15.552 33.9977 15.024C34.0137 14.48 34.0377 13.88 34.0697 13.224C34.1177 12.568 34.1897 11.92 34.2857 11.28C34.3817 10.624 34.5097 10.024 34.6697 9.48004C34.8297 8.92004 35.0297 8.47204 35.2697 8.13604C35.8457 7.33604 36.5017 6.71204 37.2377 6.26404C37.9737 5.80004 38.8057 5.56804 39.7337 5.56804C39.9897 5.56804 40.3977 5.59204 40.9577 5.64004C41.5337 5.68804 42.1497 5.76004 42.8057 5.85604C42.8697 5.00804 42.9177 4.27204 42.9497 3.64804C42.9977 3.02404 43.0297 2.44804 43.0457 1.92004C43.0617 1.37604 43.0697 0.848042 43.0697 0.336042C43.0697 0.224042 43.0937 0.144042 43.1417 0.0960422C43.2057 0.032042 43.3097 4.19617e-05 43.4537 4.19617e-05C43.7737 4.19617e-05 44.1017 0.0400419 44.4377 0.120042C44.7897 0.200042 45.0777 0.328042 45.3017 0.504043C45.5257 0.664042 45.6377 0.872042 45.6377 1.12804C45.6377 1.20804 45.6297 1.36004 45.6137 1.58404C45.5977 1.80804 45.5737 2.08804 45.5417 2.42404C45.5257 2.76004 45.5017 3.13604 45.4697 3.55204C45.4377 3.95204 45.4057 4.38404 45.3737 4.84804C45.3577 5.29604 45.3257 5.75204 45.2777 6.21604H45.3737C45.4217 6.21604 45.4537 6.23204 45.4697 6.26404C45.5017 6.29604 45.5177 6.35204 45.5177 6.43204C45.5177 6.68804 45.4777 6.89604 45.3977 7.05604C45.3177 7.21604 45.2457 7.29604 45.1817 7.29604C45.1817 7.34404 45.1657 7.55204 45.1337 7.92004C45.1177 8.27204 45.0937 8.73604 45.0617 9.31204C45.0297 9.88804 44.9977 10.512 44.9657 11.184C44.9337 11.84 44.9017 12.504 44.8697 13.176C44.8537 13.848 44.8457 14.456 44.8457 15C44.8457 15.528 44.8697 15.864 44.9177 16.008C44.9657 16.136 45.0537 16.2 45.1817 16.2C45.2777 16.2 45.4297 16.112 45.6377 15.936C45.8457 15.76 46.0697 15.536 46.3097 15.264C46.5657 14.992 46.7977 14.736 47.0057 14.496C47.2137 14.24 47.3657 14.056 47.4617 13.944C47.5257 13.88 47.5657 13.832 47.5817 13.8C47.6137 13.768 47.6537 13.752 47.7017 13.752C47.7497 13.752 47.8217 13.84 47.9177 14.016C48.0297 14.176 48.0857 14.352 48.0857 14.544C48.0857 14.624 48.0777 14.696 48.0617 14.76C48.0457 14.808 48.0137 14.864 47.9657 14.928C47.7897 15.168 47.5417 15.488 47.2217 15.888C46.9017 16.272 46.5497 16.664 46.1657 17.064C45.7817 17.448 45.4057 17.776 45.0377 18.048C44.6857 18.32 44.3817 18.456 44.1257 18.456C44.0457 18.456 43.9097 18.424 43.7177 18.36C43.5417 18.296 43.3497 18.208 43.1417 18.096C42.9497 17.968 42.7737 17.84 42.6137 17.712C42.4697 17.568 42.3817 17.432 42.3497 17.304C42.3177 17.192 42.2937 17.056 42.2777 16.896C42.2777 16.72 42.2777 16.512 42.2777 16.272C42.2777 15.968 42.2777 15.584 42.2777 15.12C42.2937 14.656 42.3177 14.16 42.3497 13.632C42.3817 13.088 42.4137 12.552 42.4457 12.024C42.4777 11.496 42.5017 11.016 42.5177 10.584C42.2457 11.16 41.8937 11.8 41.4617 12.504C41.0297 13.208 40.5497 13.912 40.0217 14.616C39.4937 15.304 38.9577 15.944 38.4137 16.536C37.8857 17.112 37.3977 17.576 36.9497 17.928C36.5017 18.28 36.1257 18.456 35.8217 18.456ZM36.8777 16.2C36.9897 16.2 37.1897 16.064 37.4777 15.792C37.7817 15.504 38.1337 15.12 38.5337 14.64C38.9497 14.16 39.3737 13.616 39.8057 13.008C40.2377 12.384 40.6537 11.736 41.0537 11.064C41.4537 10.392 41.8057 9.72804 42.1097 9.07204C42.4137 8.40004 42.6217 7.77604 42.7337 7.20004C41.9817 7.04004 41.3337 6.93604 40.7897 6.88804C40.2457 6.82404 39.7817 6.79204 39.3977 6.79204C38.5017 6.79204 37.7977 7.51204 37.2857 8.95204C36.7897 10.376 36.5417 12.392 36.5417 15C36.5417 15.544 36.5657 15.88 36.6137 16.008C36.6617 16.136 36.7497 16.2 36.8777 16.2ZM47.7122 15.24C47.6322 15.336 47.5522 15.36 47.4722 15.312C47.3762 15.248 47.2962 15.152 47.2322 15.024C47.1682 14.896 47.1362 14.752 47.1362 14.592C47.1362 14.432 47.1842 14.288 47.2802 14.16C47.6962 13.664 48.0722 13.184 48.4082 12.72C48.7602 12.256 49.0722 11.808 49.3442 11.376C49.6162 10.928 49.8562 10.496 50.0642 10.08C50.2882 9.64804 50.4802 9.22404 50.6402 8.80804C50.7042 8.74404 50.7762 8.72804 50.8562 8.76004C50.9522 8.79204 51.0162 8.88004 51.0482 9.02404C51.0802 9.16804 51.0482 9.40004 50.9522 9.72004C50.8402 10.072 50.6642 10.488 50.4242 10.968C50.1842 11.448 49.9042 11.952 49.5842 12.48C49.2802 12.992 48.9602 13.488 48.6242 13.968C48.2882 14.448 47.9842 14.872 47.7122 15.24ZM51.3842 18.456C51.3202 18.456 51.1922 18.424 51.0002 18.36C50.8242 18.296 50.6322 18.208 50.4242 18.096C50.2322 17.968 50.0562 17.84 49.8962 17.712C49.7522 17.568 49.6562 17.432 49.6082 17.304C49.5602 17.096 49.5362 16.752 49.5362 16.272C49.5362 15.968 49.5442 15.552 49.5602 15.024C49.5762 14.48 49.6002 13.88 49.6322 13.224C49.6802 12.568 49.7522 11.92 49.8482 11.28C49.9442 10.624 50.0722 10.024 50.2322 9.48004C50.3922 8.92004 50.5922 8.47204 50.8322 8.13604C51.4082 7.33604 52.0642 6.71204 52.8002 6.26404C53.5362 5.80004 54.3682 5.56804 55.2962 5.56804C55.6002 5.56804 56.0402 5.59204 56.6162 5.64004C57.1922 5.68804 57.8562 5.76004 58.6082 5.85604C59.3602 5.95204 60.1362 6.08004 60.9362 6.24004C60.9682 6.24004 61.0002 6.25604 61.0322 6.28804C61.0642 6.30404 61.0802 6.35204 61.0802 6.43204C61.0802 6.68804 61.0402 6.89604 60.9602 7.05604C60.8802 7.21604 60.8082 7.29604 60.7442 7.29604C60.7442 7.34404 60.7282 7.55204 60.6962 7.92004C60.6802 8.27204 60.6562 8.73604 60.6242 9.31204C60.5922 9.88804 60.5602 10.512 60.5282 11.184C60.4962 11.84 60.4642 12.504 60.4322 13.176C60.4162 13.848 60.4082 14.456 60.4082 15C60.4082 15.528 60.4322 15.864 60.4802 16.008C60.5282 16.152 60.6162 16.224 60.7442 16.224C60.8402 16.224 60.9922 16.136 61.2002 15.96C61.4082 15.768 61.6322 15.544 61.8722 15.288C62.1282 15.016 62.3602 14.752 62.5682 14.496C62.7762 14.24 62.9282 14.056 63.0242 13.944C63.0882 13.88 63.1282 13.832 63.1442 13.8C63.1762 13.768 63.2082 13.752 63.2402 13.752C63.3042 13.752 63.3842 13.84 63.4802 14.016C63.5922 14.176 63.6482 14.352 63.6482 14.544C63.6482 14.608 63.6402 14.672 63.6242 14.736C63.6082 14.8 63.5762 14.864 63.5282 14.928C63.3522 15.168 63.1042 15.488 62.7842 15.888C62.4642 16.272 62.1122 16.664 61.7282 17.064C61.3442 17.448 60.9682 17.776 60.6002 18.048C60.2482 18.32 59.9442 18.456 59.6882 18.456C59.6082 18.456 59.4722 18.424 59.2802 18.36C59.1042 18.296 58.9122 18.208 58.7042 18.096C58.5122 17.968 58.3362 17.84 58.1762 17.712C58.0322 17.568 57.9442 17.432 57.9122 17.304C57.8802 17.192 57.8562 17.056 57.8402 16.896C57.8402 16.72 57.8402 16.512 57.8402 16.272C57.8402 15.968 57.8402 15.584 57.8402 15.12C57.8562 14.656 57.8802 14.16 57.9122 13.632C57.9442 13.088 57.9762 12.552 58.0082 12.024C58.0402 11.496 58.0642 11.016 58.0802 10.584C57.8082 11.16 57.4562 11.8 57.0242 12.504C56.5922 13.208 56.1122 13.912 55.5842 14.616C55.0562 15.304 54.5202 15.944 53.9762 16.536C53.4482 17.112 52.9602 17.576 52.5122 17.928C52.0642 18.28 51.6882 18.456 51.3842 18.456ZM52.4402 16.224C52.5522 16.224 52.7522 16.088 53.0402 15.816C53.3442 15.528 53.6962 15.144 54.0962 14.664C54.5122 14.184 54.9362 13.632 55.3682 13.008C55.8002 12.384 56.2162 11.736 56.6162 11.064C57.0162 10.392 57.3682 9.72804 57.6722 9.07204C57.9762 8.40004 58.1842 7.77604 58.2962 7.20004C57.5442 7.04004 56.8962 6.93604 56.3522 6.88804C55.8082 6.82404 55.3442 6.79204 54.9602 6.79204C54.0642 6.79204 53.3602 7.51204 52.8482 8.95204C52.3522 10.376 52.1042 12.392 52.1042 15C52.1042 15.544 52.1282 15.888 52.1762 16.032C52.2242 16.16 52.3122 16.224 52.4402 16.224Z" fill="#363033"/>
<path d="M66.5627 18.144C66.2107 18.144 65.9227 18.048 65.6987 17.856C65.4907 17.648 65.3867 17.312 65.3867 16.848C65.3867 16.512 65.4747 16.216 65.6507 15.96C65.8267 15.704 66.0347 15.504 66.2747 15.36C66.5307 15.216 66.7707 15.144 66.9947 15.144C67.2027 15.144 67.3867 15.216 67.5467 15.36C67.7227 15.488 67.8587 15.68 67.9547 15.936C68.0667 16.176 68.1227 16.44 68.1227 16.728C68.1227 17.032 68.0507 17.296 67.9067 17.52C67.7627 17.728 67.5707 17.888 67.3307 18C67.1067 18.096 66.8507 18.144 66.5627 18.144ZM73.1616 18.456C73.0816 18.456 72.9536 18.424 72.7776 18.36C72.6016 18.296 72.4096 18.208 72.2016 18.096C71.9936 17.968 71.8096 17.84 71.6496 17.712C71.4896 17.568 71.3936 17.432 71.3616 17.304C71.3296 17.192 71.3056 17.056 71.2896 16.896C71.2896 16.72 71.2896 16.512 71.2896 16.272C71.2896 15.872 71.3056 15.368 71.3376 14.76C71.3856 14.152 71.4496 13.48 71.5296 12.744C71.6096 12.008 71.6896 11.248 71.7696 10.464C71.8496 9.66404 71.9216 8.87204 71.9856 8.08804C72.0496 7.30404 72.0976 6.57604 72.1296 5.90404C72.1296 5.79204 72.1536 5.71204 72.2016 5.66404C72.2656 5.60004 72.3696 5.56804 72.5136 5.56804C72.8496 5.56804 73.1856 5.60804 73.5216 5.68804C73.8576 5.76804 74.1376 5.89604 74.3616 6.07204C74.5856 6.23204 74.6896 6.44004 74.6736 6.69604C74.6736 7.28804 74.6256 7.96804 74.5296 8.73604C74.4496 9.48804 74.3536 10.256 74.2416 11.04C74.1456 11.824 74.0576 12.568 73.9776 13.272C73.8976 13.96 73.8576 14.536 73.8576 15C73.8576 15.544 73.8816 15.888 73.9296 16.032C73.9776 16.16 74.0736 16.224 74.2176 16.224C74.3456 16.224 74.5856 16.056 74.9376 15.72C75.2896 15.368 75.6976 14.904 76.1616 14.328C76.6256 13.752 77.0976 13.104 77.5776 12.384C78.0736 11.648 78.5216 10.904 78.9216 10.152C79.2736 9.41604 79.5536 8.68804 79.7616 7.96804C79.9856 7.24804 80.0976 6.56804 80.0976 5.92804C80.0976 5.80004 80.1216 5.71204 80.1696 5.66404C80.2336 5.60004 80.3456 5.56804 80.5056 5.56804C80.8256 5.56804 81.1376 5.60804 81.4416 5.68804C81.7616 5.76804 82.0256 5.89604 82.2336 6.07204C82.4576 6.23204 82.5696 6.44004 82.5696 6.69604C82.5696 6.72804 82.5536 6.95204 82.5216 7.36804C82.5056 7.76804 82.4736 8.28004 82.4256 8.90404C82.3936 9.52804 82.3536 10.208 82.3056 10.944C82.2736 11.68 82.2416 12.408 82.2096 13.128C82.1776 13.832 82.1616 14.456 82.1616 15C82.1616 15.528 82.1856 15.864 82.2336 16.008C82.2816 16.152 82.3776 16.224 82.5216 16.224C82.6176 16.224 82.7616 16.136 82.9536 15.96C83.1616 15.768 83.3856 15.544 83.6256 15.288C83.8816 15.016 84.1136 14.752 84.3216 14.496C84.5296 14.24 84.6896 14.056 84.8016 13.944C84.8496 13.88 84.8816 13.832 84.8976 13.8C84.9296 13.768 84.9616 13.752 84.9936 13.752C85.0736 13.752 85.1616 13.84 85.2576 14.016C85.3696 14.176 85.4256 14.352 85.4256 14.544C85.4256 14.608 85.4096 14.672 85.3776 14.736C85.3616 14.8 85.3296 14.864 85.2816 14.928C85.1216 15.168 84.8736 15.488 84.5376 15.888C84.2176 16.272 83.8656 16.664 83.4816 17.064C83.0976 17.448 82.7216 17.776 82.3536 18.048C82.0016 18.32 81.6976 18.456 81.4416 18.456C81.3616 18.456 81.2256 18.424 81.0336 18.36C80.8576 18.296 80.6656 18.208 80.4576 18.096C80.2496 17.968 80.0736 17.84 79.9296 17.712C79.7856 17.568 79.6896 17.432 79.6416 17.304C79.6256 17.192 79.6096 17.056 79.5936 16.896C79.5936 16.72 79.5936 16.512 79.5936 16.272C79.5936 15.968 79.6016 15.584 79.6176 15.12C79.6336 14.656 79.6496 14.16 79.6656 13.632C79.6816 13.088 79.7056 12.552 79.7376 12.024C79.7696 11.496 79.8016 11.016 79.8336 10.584C79.5776 11.16 79.2256 11.8 78.7776 12.504C78.3296 13.208 77.8416 13.912 77.3136 14.616C76.8016 15.304 76.2816 15.944 75.7536 16.536C75.2256 17.112 74.7296 17.576 74.2656 17.928C73.8176 18.28 73.4496 18.456 73.1616 18.456ZM83.4882 17.04C83.4402 17.088 83.3522 17.096 83.2242 17.064C83.0962 17.016 82.9682 16.952 82.8402 16.872C82.7122 16.792 82.6162 16.72 82.5522 16.656C82.4722 16.576 82.4562 16.512 82.5042 16.464C83.4802 15.552 84.2802 14.64 84.9042 13.728C85.5282 12.816 86.0162 11.936 86.3682 11.088C86.7202 10.24 86.9762 9.46404 87.1362 8.76004C87.2962 8.04004 87.4002 7.44004 87.4482 6.96004C87.4642 6.76804 87.5282 6.68804 87.6402 6.72004C87.7522 6.73604 87.8482 6.88004 87.9282 7.15204C88.0082 7.40804 88.0082 7.80804 87.9282 8.35204C87.8002 9.26404 87.5362 10.256 87.1362 11.328C86.7522 12.4 86.2482 13.44 85.6242 14.448C85.0162 15.44 84.3042 16.304 83.4882 17.04ZM86.8118 18.456C86.6998 18.456 86.5878 18.384 86.4758 18.24C86.3798 18.112 86.2918 17.952 86.2118 17.76C86.1478 17.552 86.1158 17.352 86.1158 17.16C86.1158 16.92 86.1718 16.728 86.2838 16.584C86.3478 16.472 86.4998 16.272 86.7398 15.984C86.9958 15.68 87.2998 15.32 87.6518 14.904C88.0038 14.488 88.3558 14.064 88.7078 13.632C89.0758 13.184 89.4118 12.768 89.7158 12.384C89.5558 12.112 89.3478 11.8 89.0918 11.448C88.8518 11.08 88.6038 10.704 88.3478 10.32C88.0918 9.93604 87.8518 9.58404 87.6278 9.26404C87.4198 8.92804 87.2598 8.64804 87.1478 8.42404C87.0678 8.26404 87.0038 8.12004 86.9558 7.99204C86.9238 7.86404 86.9078 7.75204 86.9078 7.65604C86.9078 7.46404 86.9558 7.25604 87.0518 7.03204C87.1638 6.79204 87.2998 6.56804 87.4598 6.36004C87.6198 6.13604 87.7878 5.94404 87.9638 5.78404C88.1238 5.64004 88.2518 5.56804 88.3478 5.56804C88.4118 5.56804 88.4758 5.59204 88.5398 5.64004C88.6198 5.67204 88.6758 5.71204 88.7078 5.76004C88.7718 5.88804 88.9158 6.16004 89.1398 6.57604C89.3638 6.99204 89.6758 7.54404 90.0758 8.23204C90.4758 8.90404 90.9878 9.71204 91.6118 10.656C92.5558 9.44004 93.2918 8.46404 93.8198 7.72804C94.3478 6.97604 94.7238 6.43204 94.9478 6.09604C95.1878 5.74404 95.3318 5.56804 95.3798 5.56804C95.4918 5.56804 95.5958 5.64004 95.6918 5.78404C95.8038 5.91204 95.8918 6.08004 95.9558 6.28804C96.0358 6.48004 96.0758 6.67204 96.0758 6.86404C96.0758 7.02404 95.9958 7.23204 95.8358 7.48804C95.6438 7.76004 95.3638 8.12004 94.9958 8.56804C94.6278 9.01604 94.2278 9.49604 93.7958 10.008C93.3638 10.52 92.9478 11.032 92.5478 11.544C92.7238 11.8 92.9478 12.12 93.2198 12.504C93.5078 12.888 93.7958 13.28 94.0838 13.68C94.3878 14.08 94.6678 14.456 94.9238 14.808C95.1798 15.144 95.3718 15.392 95.4998 15.552C95.5638 15.632 95.6118 15.72 95.6438 15.816C95.6918 15.912 95.7158 16.032 95.7158 16.176C95.7158 16.416 95.6598 16.672 95.5478 16.944C95.4518 17.2 95.3318 17.44 95.1878 17.664C95.0438 17.888 94.9158 18.072 94.8038 18.216C94.7558 18.28 94.6998 18.336 94.6358 18.384C94.5718 18.432 94.4998 18.456 94.4198 18.456C94.3558 18.456 94.3078 18.44 94.2758 18.408C94.2438 18.376 94.1958 18.32 94.1318 18.24C94.0518 18.144 93.9078 17.952 93.6998 17.664C93.5078 17.376 93.2678 17.04 92.9798 16.656C92.7078 16.256 92.4198 15.848 92.1158 15.432C91.8278 15 91.5558 14.6 91.2998 14.232C91.0438 13.864 90.8278 13.56 90.6518 13.32C89.8838 14.312 89.2598 15.144 88.7798 15.816C88.2998 16.472 87.9238 16.992 87.6518 17.376C87.3798 17.76 87.1798 18.032 87.0518 18.192C86.9398 18.368 86.8598 18.456 86.8118 18.456Z" fill="#B61E5D"/>
</svg>
