<svg width="32" height="32" viewBox="0 0 32 32" fill="none" xmlns="http://www.w3.org/2000/svg">
<mask id="mask0_54_2662" style="mask-type:alpha" maskUnits="userSpaceOnUse" x="0" y="0" width="32" height="32">
<rect width="32" height="32" fill="#D9D9D9"/>
</mask>
<g mask="url(#mask0_54_2662)">
<path d="M14.6667 28V17.3667C13.2444 17.3667 11.8778 17.0944 10.5667 16.55C9.25556 16.0056 8.1 15.2333 7.1 14.2333C6.1 13.2333 5.33333 12.0778 4.8 10.7667C4.26667 9.45556 4 8.08889 4 6.66667V4H6.66667C8.06667 4 9.42222 4.27222 10.7333 4.81667C12.0444 5.36111 13.2 6.13333 14.2 7.13333C14.8889 7.82222 15.4611 8.57778 15.9167 9.4C16.3722 10.2222 16.7222 11.1 16.9667 12.0333C17.0778 11.8778 17.2 11.7278 17.3333 11.5833C17.4667 11.4389 17.6111 11.2889 17.7667 11.1333C18.7667 10.1333 19.9222 9.36111 21.2333 8.81667C22.5444 8.27222 23.9111 8 25.3333 8H28V10.6667C28 12.0889 27.7278 13.4556 27.1833 14.7667C26.6389 16.0778 25.8667 17.2333 24.8667 18.2333C23.8667 19.2333 22.7167 20 21.4167 20.5333C20.1167 21.0667 18.7556 21.3333 17.3333 21.3333V28H14.6667ZM14.6667 14.6667C14.6667 13.6 14.4611 12.5833 14.05 11.6167C13.6389 10.65 13.0556 9.78889 12.3 9.03333C11.5444 8.27778 10.6833 7.69444 9.71667 7.28333C8.75 6.87222 7.73333 6.66667 6.66667 6.66667C6.66667 7.73333 6.86667 8.75556 7.26667 9.73333C7.66667 10.7111 8.24444 11.5778 9 12.3333C9.75556 13.0889 10.6222 13.6667 11.6 14.0667C12.5778 14.4667 13.6 14.6667 14.6667 14.6667ZM17.3333 18.6667C18.4 18.6667 19.4167 18.4667 20.3833 18.0667C21.35 17.6667 22.2111 17.0889 22.9667 16.3333C23.7222 15.5778 24.3056 14.7111 24.7167 13.7333C25.1278 12.7556 25.3333 11.7333 25.3333 10.6667C24.2667 10.6667 23.2444 10.8722 22.2667 11.2833C21.2889 11.6944 20.4222 12.2778 19.6667 13.0333C18.9111 13.7889 18.3333 14.65 17.9333 15.6167C17.5333 16.5833 17.3333 17.6 17.3333 18.6667Z" fill="#363033"/>
</g>
</svg>
