<svg width="32" height="32" viewBox="0 0 32 32" fill="none" xmlns="http://www.w3.org/2000/svg">
<mask id="mask0_54_2656" style="mask-type:alpha" maskUnits="userSpaceOnUse" x="0" y="0" width="32" height="32">
<rect width="32" height="32" fill="#D9D9D9"/>
</mask>
<g mask="url(#mask0_54_2656)">
<path d="M11.7998 22.4333L15.9998 19.9L20.1998 22.4666L19.0998 17.6666L22.7998 14.4666L17.9332 14.0333L15.9998 9.49998L14.0665 14L9.19984 14.4333L12.8998 17.6666L11.7998 22.4333ZM7.7665 28L9.93317 18.6333L2.6665 12.3333L12.2665 11.5L15.9998 2.66665L19.7332 11.5L29.3332 12.3333L22.0665 18.6333L24.2332 28L15.9998 23.0333L7.7665 28ZM22.9998 9.33331L23.6998 6.36665L21.3332 4.39998L24.4665 4.13331L25.6665 1.33331L26.8665 4.13331L29.9998 4.39998L27.6332 6.36665L28.3332 9.33331L25.6665 7.76665L22.9998 9.33331Z" fill="#363033"/>
</g>
</svg>
